<?xml version="1.0" encoding="UTF-8"?>
<svg width="200px" height="200px" viewBox="0 0 200 200" version="1.1" xmlns="http://www.w3.org/2000/svg" xmlns:xlink="http://www.w3.org/1999/xlink">
    <title>shareplay</title>
    <g id="shareplay" stroke="none" stroke-width="1" fill="none" fill-rule="evenodd">
        <g id="Regular-M" transform="translate(20.000000, 54.000000)" fill="#000000" fill-rule="nonzero">
            <path d="M53.27147,91.35743 L107.22677,91.35743 C109.34277,91.35743 111.019103,90.8854233 112.25577,89.94141 C113.493103,88.9974033 114.11177,87.69532 114.11177,86.03516 C114.11177,83.4309947 113.330437,80.6884813 111.76777,77.80762 C110.205103,74.92676 107.95077,72.2330867 105.00477,69.7266 C102.05877,67.2200667 98.5024367,65.1855667 94.33577,63.6231 C90.1692367,62.0605667 85.4818033,61.2793 80.27347,61.2793 C75.0325367,61.2793 70.3287367,62.0605667 66.16207,63.6231 C61.9954033,65.1855667 58.4391033,67.2200667 55.49317,69.7266 C52.5472367,72.2330867 50.2930033,74.92676 48.73047,77.80762 C47.1680033,80.6884813 46.38677,83.4309947 46.38677,86.03516 C46.38677,87.69532 46.9971033,88.9974033 48.21777,89.94141 C49.4385033,90.8854233 51.12307,91.35743 53.27147,91.35743 Z M80.27347,54.1016 C83.1380033,54.1016 85.7910033,53.3122 88.23247,51.7334 C90.6740033,50.1546 92.6351033,48.0224333 94.11577,45.3369 C95.5971033,42.6513667 96.33777,39.6321667 96.33777,36.2793 C96.33777,32.9915667 95.5971033,30.0456 94.11577,27.4414 C92.6351033,24.8372667 90.6740033,22.7865 88.23247,21.2891 C85.7910033,19.7917 83.1380033,19.043 80.27347,19.043 C77.40887,19.043 74.75587,19.7998333 72.31447,21.3135 C69.87307,22.8271667 67.90367,24.8942333 66.40627,27.5147 C64.90887,30.1351 64.16017,33.0892 64.16017,36.377 C64.16017,39.6972667 64.9007367,42.7001667 66.38187,45.3857 C67.8630033,48.0713 69.8324033,50.1953333 72.29007,51.7578 C74.7477367,53.3203333 77.40887,54.1016 80.27347,54.1016 Z M3.55271368e-15,86.18165 C3.55271368e-15,87.48373 0.44759,88.5905 1.34277,89.50196 C2.23797,90.41342 3.33660333,90.86915 4.63867,90.86915 C5.90820333,90.86915 6.99870333,90.41342 7.91017,89.50196 C8.82163667,88.5905 9.27737,87.48373 9.27737,86.18165 C9.27737,77.7181033 10.4736367,69.6451867 12.86617,61.9629 C15.25877,54.2806333 18.6279367,47.2331 22.97367,40.8203 C27.3193367,34.4075667 32.44627,28.8493 38.35447,24.1455 C44.26267,19.4417 50.7568033,15.7877333 57.83687,13.1836 C64.9170033,10.5794667 72.3633033,9.2774 80.17577,9.2774 C87.9884367,9.2774 95.4264367,10.5794667 102.48977,13.1836 C109.55377,15.7877333 116.048103,19.4417 121.97277,24.1455 C127.897437,28.8493 133.032437,34.4075667 137.37777,40.8203 C141.72377,47.2331 145.093103,54.2806333 147.48577,61.9629 C149.87777,69.6451867 151.07377,77.7181033 151.07377,86.18165 C151.07377,87.48373 151.521437,88.5905 152.41677,89.50196 C153.312103,90.41342 154.394437,90.86915 155.66377,90.86915 C156.96577,90.86915 158.07277,90.41342 158.98477,89.50196 C159.896103,88.5905 160.35177,87.48373 160.35177,86.18165 C160.35177,76.70899 159.00077,67.66764 156.29877,59.0576 C153.59677,50.4476 149.788103,42.5537333 144.87277,35.376 C139.957437,28.1982667 134.155103,21.9645333 127.46577,16.6748 C120.776437,11.3850667 113.42777,7.2835 105.41977,4.3701 C97.41177,1.4567 88.9971033,0 80.17577,0 C71.3216367,0 62.8906367,1.4567 54.88277,4.3701 C46.87497,7.2835 39.5345033,11.3850667 32.86137,16.6748 C26.18817,21.9645333 20.3939033,28.1982667 15.47857,35.376 C10.56317,42.5537333 6.75457,50.4476 4.05277,59.0576 C1.35092333,67.66764 3.55271368e-15,76.70899 3.55271368e-15,86.18165 Z M24.85357,86.18165 C24.85357,87.4511767 25.30927,88.5335333 26.22067,89.42872 C27.1321367,90.3239 28.2226367,90.77149 29.49217,90.77149 C30.7617033,90.77149 31.8522033,90.3239 32.76367,89.42872 C33.6751367,88.5335333 34.13087,87.4511767 34.13087,86.18165 C34.13087,79.9642033 35.1318367,74.0641533 37.13377,68.4815 C39.13577,62.8987667 41.9434033,57.8613 45.55667,53.3691 C49.1699367,48.8769667 53.4017033,45.1986 58.25197,42.334 C57.99157,41.39 57.8044033,40.4215667 57.69047,39.4287 C57.5765367,38.4359 57.51957,37.4186667 57.51957,36.377 C57.51957,35.5957333 57.5521033,34.8307333 57.61717,34.082 C57.6823033,33.3333333 57.7962367,32.6009333 57.95897,31.8848 C51.4160367,34.9772 45.66247,39.2496667 40.69827,44.7022 C35.73407,50.1546667 31.8522367,56.4209333 29.05277,63.501 C26.2533033,70.5810667 24.85357,78.1412833 24.85357,86.18165 Z M126.22077,86.18165 C126.22077,87.4511767 126.676437,88.5335333 127.58777,89.42872 C128.499103,90.3239 129.58977,90.77149 130.85977,90.77149 C132.129103,90.77149 133.219437,90.3239 134.13077,89.42872 C135.042103,88.5335333 135.49777,87.4511767 135.49777,86.18165 C135.49777,78.1738367 134.106103,70.63802 131.32277,63.5742 C128.540103,56.5104 124.68277,50.2604 119.75077,44.8242 C114.819437,39.388 109.098437,35.1074 102.58777,31.9824 C102.71777,32.666 102.82377,33.3740333 102.90577,34.1065 C102.987103,34.8389 103.02777,35.5794333 103.02777,36.3281 C103.02777,37.3697667 102.954437,38.4114333 102.80777,39.4531 C102.661103,40.4947667 102.45777,41.5039 102.19777,42.4805 C107.015103,45.3451 111.230437,49.0072 114.84377,53.4668 C118.457103,57.9264667 121.256437,62.9476333 123.24177,68.5303 C125.22777,74.1129667 126.22077,79.99675 126.22077,86.18165 Z" id="Shape"></path>
        </g>
    </g>
</svg>